<mxfile host="drawio-plugin" modified="2021-09-18T15:49:24.363Z" agent="5.0 (Windows NT 6.2; Win64; x64) AppleWebKit/537.36 (KHTML, like Gecko) Chrome/89.0.4389.90 Safari/537.36" etag="9OgXlzsrlr0bsyHy1Ze6" version="14.7.4" type="embed" pages="2"><diagram id="_3N38wlSd1iPcQhjhhr2" name="er"><mxGraphModel dx="871" dy="720" grid="1" gridSize="10" guides="1" tooltips="1" connect="1" arrows="1" fold="1" page="1" pageScale="1" pageWidth="827" pageHeight="1169" math="0" shadow="0"><root><mxCell id="0"/><mxCell id="1" parent="0"/><mxCell id="sJeb2O7EkRzasTHkYKed-1" value="Course" style="whiteSpace=wrap;html=1;align=center;" parent="1" vertex="1"><mxGeometry x="190" y="150" width="100" height="40" as="geometry"/></mxCell><mxCell id="sJeb2O7EkRzasTHkYKed-2" value="Subject" style="whiteSpace=wrap;html=1;align=center;" parent="1" vertex="1"><mxGeometry x="500" y="150" width="100" height="40" as="geometry"/></mxCell><mxCell id="sJeb2O7EkRzasTHkYKed-5" style="edgeStyle=orthogonalEdgeStyle;rounded=0;orthogonalLoop=1;jettySize=auto;html=1;exitX=0;exitY=0.5;exitDx=0;exitDy=0;entryX=1;entryY=0.5;entryDx=0;entryDy=0;endArrow=ERmandOne;endFill=0;" parent="1" source="sJeb2O7EkRzasTHkYKed-3" target="sJeb2O7EkRzasTHkYKed-1" edge="1"><mxGeometry relative="1" as="geometry"/></mxCell><mxCell id="sJeb2O7EkRzasTHkYKed-6" style="edgeStyle=orthogonalEdgeStyle;rounded=0;orthogonalLoop=1;jettySize=auto;html=1;exitX=1;exitY=0.5;exitDx=0;exitDy=0;entryX=0;entryY=0.5;entryDx=0;entryDy=0;endArrow=ERmany;endFill=0;" parent="1" source="sJeb2O7EkRzasTHkYKed-3" target="sJeb2O7EkRzasTHkYKed-2" edge="1"><mxGeometry relative="1" as="geometry"/></mxCell><mxCell id="sJeb2O7EkRzasTHkYKed-3" value="has" style="shape=rhombus;perimeter=rhombusPerimeter;whiteSpace=wrap;html=1;align=center;" parent="1" vertex="1"><mxGeometry x="340" y="140" width="120" height="60" as="geometry"/></mxCell><mxCell id="sJeb2O7EkRzasTHkYKed-7" value="Course" style="swimlane;fontStyle=1;align=center;verticalAlign=top;childLayout=stackLayout;horizontal=1;startSize=26;horizontalStack=0;resizeParent=1;resizeParentMax=0;resizeLast=0;collapsible=1;marginBottom=0;" parent="1" vertex="1"><mxGeometry x="170" y="260" width="160" height="112" as="geometry"/></mxCell><mxCell id="sJeb2O7EkRzasTHkYKed-8" value="- name: string" style="text;strokeColor=none;fillColor=none;align=left;verticalAlign=top;spacingLeft=4;spacingRight=4;overflow=hidden;rotatable=0;points=[[0,0.5],[1,0.5]];portConstraint=eastwest;" parent="sJeb2O7EkRzasTHkYKed-7" vertex="1"><mxGeometry y="26" width="160" height="26" as="geometry"/></mxCell><mxCell id="sJeb2O7EkRzasTHkYKed-15" value="- subjects: List&lt;Subject&gt;" style="text;strokeColor=none;fillColor=none;align=left;verticalAlign=top;spacingLeft=4;spacingRight=4;overflow=hidden;rotatable=0;points=[[0,0.5],[1,0.5]];portConstraint=eastwest;" parent="sJeb2O7EkRzasTHkYKed-7" vertex="1"><mxGeometry y="52" width="160" height="26" as="geometry"/></mxCell><mxCell id="sJeb2O7EkRzasTHkYKed-9" value="" style="line;strokeWidth=1;fillColor=none;align=left;verticalAlign=middle;spacingTop=-1;spacingLeft=3;spacingRight=3;rotatable=0;labelPosition=right;points=[];portConstraint=eastwest;" parent="sJeb2O7EkRzasTHkYKed-7" vertex="1"><mxGeometry y="78" width="160" height="8" as="geometry"/></mxCell><mxCell id="sJeb2O7EkRzasTHkYKed-10" value="+ method(type): type" style="text;strokeColor=none;fillColor=none;align=left;verticalAlign=top;spacingLeft=4;spacingRight=4;overflow=hidden;rotatable=0;points=[[0,0.5],[1,0.5]];portConstraint=eastwest;" parent="sJeb2O7EkRzasTHkYKed-7" vertex="1"><mxGeometry y="86" width="160" height="26" as="geometry"/></mxCell><mxCell id="sJeb2O7EkRzasTHkYKed-11" value="Subject" style="swimlane;fontStyle=1;align=center;verticalAlign=top;childLayout=stackLayout;horizontal=1;startSize=26;horizontalStack=0;resizeParent=1;resizeParentMax=0;resizeLast=0;collapsible=1;marginBottom=0;" parent="1" vertex="1"><mxGeometry x="470" y="260" width="160" height="112" as="geometry"/></mxCell><mxCell id="sJeb2O7EkRzasTHkYKed-12" value="- name: string" style="text;strokeColor=none;fillColor=none;align=left;verticalAlign=top;spacingLeft=4;spacingRight=4;overflow=hidden;rotatable=0;points=[[0,0.5],[1,0.5]];portConstraint=eastwest;" parent="sJeb2O7EkRzasTHkYKed-11" vertex="1"><mxGeometry y="26" width="160" height="26" as="geometry"/></mxCell><mxCell id="sJeb2O7EkRzasTHkYKed-16" value="- course: Course" style="text;strokeColor=none;fillColor=none;align=left;verticalAlign=top;spacingLeft=4;spacingRight=4;overflow=hidden;rotatable=0;points=[[0,0.5],[1,0.5]];portConstraint=eastwest;" parent="sJeb2O7EkRzasTHkYKed-11" vertex="1"><mxGeometry y="52" width="160" height="26" as="geometry"/></mxCell><mxCell id="sJeb2O7EkRzasTHkYKed-13" value="" style="line;strokeWidth=1;fillColor=none;align=left;verticalAlign=middle;spacingTop=-1;spacingLeft=3;spacingRight=3;rotatable=0;labelPosition=right;points=[];portConstraint=eastwest;" parent="sJeb2O7EkRzasTHkYKed-11" vertex="1"><mxGeometry y="78" width="160" height="8" as="geometry"/></mxCell><mxCell id="sJeb2O7EkRzasTHkYKed-14" value="+ method(type): type" style="text;strokeColor=none;fillColor=none;align=left;verticalAlign=top;spacingLeft=4;spacingRight=4;overflow=hidden;rotatable=0;points=[[0,0.5],[1,0.5]];portConstraint=eastwest;" parent="sJeb2O7EkRzasTHkYKed-11" vertex="1"><mxGeometry y="86" width="160" height="26" as="geometry"/></mxCell><mxCell id="sJeb2O7EkRzasTHkYKed-17" value="Student" style="whiteSpace=wrap;html=1;align=center;" parent="1" vertex="1"><mxGeometry x="190" y="480" width="100" height="40" as="geometry"/></mxCell><mxCell id="sJeb2O7EkRzasTHkYKed-18" value="Course" style="whiteSpace=wrap;html=1;align=center;" parent="1" vertex="1"><mxGeometry x="500" y="480" width="100" height="40" as="geometry"/></mxCell><mxCell id="sJeb2O7EkRzasTHkYKed-19" style="edgeStyle=orthogonalEdgeStyle;rounded=0;orthogonalLoop=1;jettySize=auto;html=1;exitX=0;exitY=0.5;exitDx=0;exitDy=0;entryX=1;entryY=0.5;entryDx=0;entryDy=0;endArrow=ERmany;endFill=0;" parent="1" source="sJeb2O7EkRzasTHkYKed-21" target="sJeb2O7EkRzasTHkYKed-17" edge="1"><mxGeometry relative="1" as="geometry"/></mxCell><mxCell id="sJeb2O7EkRzasTHkYKed-20" style="edgeStyle=orthogonalEdgeStyle;rounded=0;orthogonalLoop=1;jettySize=auto;html=1;exitX=1;exitY=0.5;exitDx=0;exitDy=0;entryX=0;entryY=0.5;entryDx=0;entryDy=0;endArrow=ERmany;endFill=0;" parent="1" source="sJeb2O7EkRzasTHkYKed-21" target="sJeb2O7EkRzasTHkYKed-18" edge="1"><mxGeometry relative="1" as="geometry"/></mxCell><mxCell id="sJeb2O7EkRzasTHkYKed-21" value="enrolls for" style="shape=rhombus;perimeter=rhombusPerimeter;whiteSpace=wrap;html=1;align=center;" parent="1" vertex="1"><mxGeometry x="340" y="470" width="120" height="60" as="geometry"/></mxCell><mxCell id="sJeb2O7EkRzasTHkYKed-22" value="Student" style="swimlane;fontStyle=1;align=center;verticalAlign=top;childLayout=stackLayout;horizontal=1;startSize=26;horizontalStack=0;resizeParent=1;resizeParentMax=0;resizeLast=0;collapsible=1;marginBottom=0;" parent="1" vertex="1"><mxGeometry x="100" y="740" width="190" height="112" as="geometry"/></mxCell><mxCell id="sJeb2O7EkRzasTHkYKed-23" value="- name: string" style="text;strokeColor=none;fillColor=none;align=left;verticalAlign=top;spacingLeft=4;spacingRight=4;overflow=hidden;rotatable=0;points=[[0,0.5],[1,0.5]];portConstraint=eastwest;" parent="sJeb2O7EkRzasTHkYKed-22" vertex="1"><mxGeometry y="26" width="190" height="26" as="geometry"/></mxCell><mxCell id="sJeb2O7EkRzasTHkYKed-24" value="- enrolledCourses: List&lt;Course&gt;" style="text;strokeColor=none;fillColor=none;align=left;verticalAlign=top;spacingLeft=4;spacingRight=4;overflow=hidden;rotatable=0;points=[[0,0.5],[1,0.5]];portConstraint=eastwest;" parent="sJeb2O7EkRzasTHkYKed-22" vertex="1"><mxGeometry y="52" width="190" height="26" as="geometry"/></mxCell><mxCell id="sJeb2O7EkRzasTHkYKed-25" value="" style="line;strokeWidth=1;fillColor=none;align=left;verticalAlign=middle;spacingTop=-1;spacingLeft=3;spacingRight=3;rotatable=0;labelPosition=right;points=[];portConstraint=eastwest;" parent="sJeb2O7EkRzasTHkYKed-22" vertex="1"><mxGeometry y="78" width="190" height="8" as="geometry"/></mxCell><mxCell id="sJeb2O7EkRzasTHkYKed-26" value="+ method(type): type" style="text;strokeColor=none;fillColor=none;align=left;verticalAlign=top;spacingLeft=4;spacingRight=4;overflow=hidden;rotatable=0;points=[[0,0.5],[1,0.5]];portConstraint=eastwest;" parent="sJeb2O7EkRzasTHkYKed-22" vertex="1"><mxGeometry y="86" width="190" height="26" as="geometry"/></mxCell><mxCell id="sJeb2O7EkRzasTHkYKed-27" value="Course" style="swimlane;fontStyle=1;align=center;verticalAlign=top;childLayout=stackLayout;horizontal=1;startSize=26;horizontalStack=0;resizeParent=1;resizeParentMax=0;resizeLast=0;collapsible=1;marginBottom=0;" parent="1" vertex="1"><mxGeometry x="490" y="740" width="190" height="112" as="geometry"/></mxCell><mxCell id="sJeb2O7EkRzasTHkYKed-28" value="- name: string" style="text;strokeColor=none;fillColor=none;align=left;verticalAlign=top;spacingLeft=4;spacingRight=4;overflow=hidden;rotatable=0;points=[[0,0.5],[1,0.5]];portConstraint=eastwest;" parent="sJeb2O7EkRzasTHkYKed-27" vertex="1"><mxGeometry y="26" width="190" height="26" as="geometry"/></mxCell><mxCell id="sJeb2O7EkRzasTHkYKed-29" value="- enrolledStudents: List&lt;Student&gt;" style="text;strokeColor=none;fillColor=none;align=left;verticalAlign=top;spacingLeft=4;spacingRight=4;overflow=hidden;rotatable=0;points=[[0,0.5],[1,0.5]];portConstraint=eastwest;" parent="sJeb2O7EkRzasTHkYKed-27" vertex="1"><mxGeometry y="52" width="190" height="26" as="geometry"/></mxCell><mxCell id="sJeb2O7EkRzasTHkYKed-30" value="" style="line;strokeWidth=1;fillColor=none;align=left;verticalAlign=middle;spacingTop=-1;spacingLeft=3;spacingRight=3;rotatable=0;labelPosition=right;points=[];portConstraint=eastwest;" parent="sJeb2O7EkRzasTHkYKed-27" vertex="1"><mxGeometry y="78" width="190" height="8" as="geometry"/></mxCell><mxCell id="sJeb2O7EkRzasTHkYKed-31" value="+ method(type): type" style="text;strokeColor=none;fillColor=none;align=left;verticalAlign=top;spacingLeft=4;spacingRight=4;overflow=hidden;rotatable=0;points=[[0,0.5],[1,0.5]];portConstraint=eastwest;" parent="sJeb2O7EkRzasTHkYKed-27" vertex="1"><mxGeometry y="86" width="190" height="26" as="geometry"/></mxCell><mxCell id="sJeb2O7EkRzasTHkYKed-32" value="Student" style="whiteSpace=wrap;html=1;align=center;" parent="1" vertex="1"><mxGeometry x="60" y="595" width="100" height="40" as="geometry"/></mxCell><mxCell id="sJeb2O7EkRzasTHkYKed-33" value="Course" style="whiteSpace=wrap;html=1;align=center;" parent="1" vertex="1"><mxGeometry x="640" y="594.5" width="100" height="40" as="geometry"/></mxCell><mxCell id="sJeb2O7EkRzasTHkYKed-34" style="edgeStyle=orthogonalEdgeStyle;rounded=0;orthogonalLoop=1;jettySize=auto;html=1;exitX=0;exitY=0.5;exitDx=0;exitDy=0;entryX=1;entryY=0.5;entryDx=0;entryDy=0;endArrow=ERmandOne;endFill=0;" parent="1" source="sJeb2O7EkRzasTHkYKed-36" target="sJeb2O7EkRzasTHkYKed-32" edge="1"><mxGeometry relative="1" as="geometry"/></mxCell><mxCell id="sJeb2O7EkRzasTHkYKed-35" style="edgeStyle=orthogonalEdgeStyle;rounded=0;orthogonalLoop=1;jettySize=auto;html=1;exitX=0;exitY=0.5;exitDx=0;exitDy=0;entryX=1;entryY=0.5;entryDx=0;entryDy=0;endArrow=ERmany;endFill=0;startArrow=none;" parent="1" source="sJeb2O7EkRzasTHkYKed-39" target="sJeb2O7EkRzasTHkYKed-37" edge="1"><mxGeometry relative="1" as="geometry"/></mxCell><mxCell id="sJeb2O7EkRzasTHkYKed-38" style="edgeStyle=orthogonalEdgeStyle;rounded=0;orthogonalLoop=1;jettySize=auto;html=1;exitX=1;exitY=0.5;exitDx=0;exitDy=0;entryX=0;entryY=0.5;entryDx=0;entryDy=0;endArrow=ERmany;endFill=0;" parent="1" source="sJeb2O7EkRzasTHkYKed-36" target="sJeb2O7EkRzasTHkYKed-37" edge="1"><mxGeometry relative="1" as="geometry"/></mxCell><mxCell id="sJeb2O7EkRzasTHkYKed-36" value="has" style="shape=rhombus;perimeter=rhombusPerimeter;whiteSpace=wrap;html=1;align=center;" parent="1" vertex="1"><mxGeometry x="180" y="585" width="120" height="60" as="geometry"/></mxCell><mxCell id="sJeb2O7EkRzasTHkYKed-37" value="Enrollment" style="shape=associativeEntity;whiteSpace=wrap;html=1;align=center;" parent="1" vertex="1"><mxGeometry x="330" y="585" width="140" height="60" as="geometry"/></mxCell><mxCell id="sJeb2O7EkRzasTHkYKed-42" style="edgeStyle=orthogonalEdgeStyle;rounded=0;orthogonalLoop=1;jettySize=auto;html=1;exitX=1;exitY=0.5;exitDx=0;exitDy=0;entryX=0;entryY=0.5;entryDx=0;entryDy=0;endArrow=ERmandOne;endFill=0;" parent="1" source="sJeb2O7EkRzasTHkYKed-39" target="sJeb2O7EkRzasTHkYKed-33" edge="1"><mxGeometry relative="1" as="geometry"/></mxCell><mxCell id="sJeb2O7EkRzasTHkYKed-39" value="has" style="shape=rhombus;perimeter=rhombusPerimeter;whiteSpace=wrap;html=1;align=center;" parent="1" vertex="1"><mxGeometry x="490" y="585" width="120" height="60" as="geometry"/></mxCell><mxCell id="2" value="Student" style="whiteSpace=wrap;html=1;align=center;" vertex="1" parent="1"><mxGeometry x="73" y="1020" width="100" height="40" as="geometry"/></mxCell><mxCell id="3" value="Material" style="whiteSpace=wrap;html=1;align=center;" vertex="1" parent="1"><mxGeometry x="653" y="1019.5" width="100" height="40" as="geometry"/></mxCell><mxCell id="4" style="edgeStyle=orthogonalEdgeStyle;rounded=0;orthogonalLoop=1;jettySize=auto;html=1;exitX=0;exitY=0.5;exitDx=0;exitDy=0;entryX=1;entryY=0.5;entryDx=0;entryDy=0;endArrow=ERmandOne;endFill=0;" edge="1" parent="1" source="7" target="2"><mxGeometry relative="1" as="geometry"/></mxCell><mxCell id="5" style="edgeStyle=orthogonalEdgeStyle;rounded=0;orthogonalLoop=1;jettySize=auto;html=1;exitX=0;exitY=0.5;exitDx=0;exitDy=0;entryX=1;entryY=0.5;entryDx=0;entryDy=0;endArrow=ERmany;endFill=0;startArrow=none;" edge="1" parent="1" source="10" target="8"><mxGeometry relative="1" as="geometry"/></mxCell><mxCell id="6" style="edgeStyle=orthogonalEdgeStyle;rounded=0;orthogonalLoop=1;jettySize=auto;html=1;exitX=1;exitY=0.5;exitDx=0;exitDy=0;entryX=0;entryY=0.5;entryDx=0;entryDy=0;endArrow=ERmany;endFill=0;" edge="1" parent="1" source="7" target="8"><mxGeometry relative="1" as="geometry"/></mxCell><mxCell id="7" value="has" style="shape=rhombus;perimeter=rhombusPerimeter;whiteSpace=wrap;html=1;align=center;" vertex="1" parent="1"><mxGeometry x="193" y="1010" width="120" height="60" as="geometry"/></mxCell><mxCell id="8" value="MaterialGrant" style="shape=associativeEntity;whiteSpace=wrap;html=1;align=center;" vertex="1" parent="1"><mxGeometry x="343" y="1010" width="140" height="60" as="geometry"/></mxCell><mxCell id="9" style="edgeStyle=orthogonalEdgeStyle;rounded=0;orthogonalLoop=1;jettySize=auto;html=1;exitX=1;exitY=0.5;exitDx=0;exitDy=0;entryX=0;entryY=0.5;entryDx=0;entryDy=0;endArrow=ERmandOne;endFill=0;" edge="1" parent="1" source="10" target="3"><mxGeometry relative="1" as="geometry"/></mxCell><mxCell id="10" value="has" style="shape=rhombus;perimeter=rhombusPerimeter;whiteSpace=wrap;html=1;align=center;" vertex="1" parent="1"><mxGeometry x="503" y="1010" width="120" height="60" as="geometry"/></mxCell><mxCell id="11" value="Material" style="whiteSpace=wrap;html=1;align=center;" vertex="1" parent="1"><mxGeometry x="190" y="910" width="100" height="40" as="geometry"/></mxCell><mxCell id="12" value="Student" style="whiteSpace=wrap;html=1;align=center;" vertex="1" parent="1"><mxGeometry x="500" y="910" width="100" height="40" as="geometry"/></mxCell><mxCell id="13" style="edgeStyle=orthogonalEdgeStyle;rounded=0;orthogonalLoop=1;jettySize=auto;html=1;exitX=0;exitY=0.5;exitDx=0;exitDy=0;entryX=1;entryY=0.5;entryDx=0;entryDy=0;endArrow=ERmany;endFill=0;" edge="1" parent="1" source="15" target="11"><mxGeometry relative="1" as="geometry"/></mxCell><mxCell id="14" style="edgeStyle=orthogonalEdgeStyle;rounded=0;orthogonalLoop=1;jettySize=auto;html=1;exitX=1;exitY=0.5;exitDx=0;exitDy=0;entryX=0;entryY=0.5;entryDx=0;entryDy=0;endArrow=ERmany;endFill=0;" edge="1" parent="1" source="15" target="12"><mxGeometry relative="1" as="geometry"/></mxCell><mxCell id="15" value="is granted to" style="shape=rhombus;perimeter=rhombusPerimeter;whiteSpace=wrap;html=1;align=center;" vertex="1" parent="1"><mxGeometry x="340" y="900" width="120" height="60" as="geometry"/></mxCell></root></mxGraphModel></diagram><diagram id="4lZIeniFvhvT1DdgmMAr" name="recursive_references"><mxGraphModel dx="197" dy="592" grid="1" gridSize="10" guides="1" tooltips="1" connect="1" arrows="1" fold="1" page="1" pageScale="1" pageWidth="827" pageHeight="1169" math="0" shadow="0"><root><mxCell id="pgkJQkDIC2vx54YWdKHL-0"/><mxCell id="pgkJQkDIC2vx54YWdKHL-1" parent="pgkJQkDIC2vx54YWdKHL-0"/><mxCell id="pgkJQkDIC2vx54YWdKHL-2" value="&lt;p style=&quot;margin: 0px ; margin-top: 4px ; text-align: center ; text-decoration: underline&quot;&gt;&lt;b&gt;c1:Course&lt;/b&gt;&lt;/p&gt;&lt;hr&gt;&lt;p style=&quot;margin: 0px ; margin-left: 8px&quot;&gt;name = &quot;BTEC HND&quot;&lt;br&gt;subjects = [s1, s2, s3]&lt;/p&gt;" style="verticalAlign=top;align=left;overflow=fill;fontSize=12;fontFamily=Helvetica;html=1;" vertex="1" parent="pgkJQkDIC2vx54YWdKHL-1"><mxGeometry x="1380" y="210" width="160" height="90" as="geometry"/></mxCell><mxCell id="pgkJQkDIC2vx54YWdKHL-3" value="&lt;p style=&quot;margin: 0px ; margin-top: 4px ; text-align: center ; text-decoration: underline&quot;&gt;&lt;b&gt;s1:Subject&lt;/b&gt;&lt;/p&gt;&lt;hr&gt;&lt;p style=&quot;margin: 0px ; margin-left: 8px&quot;&gt;name = &quot;Maths&quot;&lt;br&gt;course = c1&lt;/p&gt;" style="verticalAlign=top;align=left;overflow=fill;fontSize=12;fontFamily=Helvetica;html=1;" vertex="1" parent="pgkJQkDIC2vx54YWdKHL-1"><mxGeometry x="1100" y="290" width="160" height="90" as="geometry"/></mxCell><mxCell id="pgkJQkDIC2vx54YWdKHL-4" value="&lt;p style=&quot;margin: 0px ; margin-top: 4px ; text-align: center ; text-decoration: underline&quot;&gt;&lt;b&gt;s2:Subject&lt;/b&gt;&lt;/p&gt;&lt;hr&gt;&lt;p style=&quot;margin: 0px ; margin-left: 8px&quot;&gt;name = &quot;Database&quot;&lt;br&gt;course = c1&lt;/p&gt;" style="verticalAlign=top;align=left;overflow=fill;fontSize=12;fontFamily=Helvetica;html=1;" vertex="1" parent="pgkJQkDIC2vx54YWdKHL-1"><mxGeometry x="1100" y="400" width="160" height="90" as="geometry"/></mxCell><mxCell id="pgkJQkDIC2vx54YWdKHL-5" value="&lt;p style=&quot;margin: 0px ; margin-top: 4px ; text-align: center ; text-decoration: underline&quot;&gt;&lt;b&gt;s3:Subject&lt;/b&gt;&lt;/p&gt;&lt;hr&gt;&lt;p style=&quot;margin: 0px ; margin-left: 8px&quot;&gt;name = &quot;Programming&quot;&lt;br&gt;course = c1&lt;/p&gt;" style="verticalAlign=top;align=left;overflow=fill;fontSize=12;fontFamily=Helvetica;html=1;" vertex="1" parent="pgkJQkDIC2vx54YWdKHL-1"><mxGeometry x="1100" y="510" width="160" height="90" as="geometry"/></mxCell><mxCell id="pgkJQkDIC2vx54YWdKHL-6" value="" style="endArrow=none;html=1;entryX=0.469;entryY=0.667;entryDx=0;entryDy=0;entryPerimeter=0;edgeStyle=orthogonalEdgeStyle;" edge="1" parent="pgkJQkDIC2vx54YWdKHL-1" target="pgkJQkDIC2vx54YWdKHL-2"><mxGeometry width="50" height="50" relative="1" as="geometry"><mxPoint x="1262" y="329" as="sourcePoint"/><mxPoint x="1283" y="380" as="targetPoint"/></mxGeometry></mxCell><mxCell id="pgkJQkDIC2vx54YWdKHL-7" value="" style="endArrow=none;html=1;entryX=0.469;entryY=0.667;entryDx=0;entryDy=0;entryPerimeter=0;edgeStyle=orthogonalEdgeStyle;" edge="1" parent="pgkJQkDIC2vx54YWdKHL-1"><mxGeometry width="50" height="50" relative="1" as="geometry"><mxPoint x="1262" y="451" as="sourcePoint"/><mxPoint x="1476.0400000000004" y="269" as="targetPoint"/><Array as="points"><mxPoint x="1476" y="451"/></Array></mxGeometry></mxCell><mxCell id="pgkJQkDIC2vx54YWdKHL-8" value="" style="endArrow=none;html=1;entryX=0.469;entryY=0.667;entryDx=0;entryDy=0;entryPerimeter=0;edgeStyle=orthogonalEdgeStyle;" edge="1" parent="pgkJQkDIC2vx54YWdKHL-1"><mxGeometry width="50" height="50" relative="1" as="geometry"><mxPoint x="1263" y="558" as="sourcePoint"/><mxPoint x="1494.0400000000004" y="270" as="targetPoint"/></mxGeometry></mxCell><mxCell id="pgkJQkDIC2vx54YWdKHL-9" value="" style="endArrow=none;html=1;edgeStyle=orthogonalEdgeStyle;" edge="1" parent="pgkJQkDIC2vx54YWdKHL-1"><mxGeometry width="50" height="50" relative="1" as="geometry"><mxPoint x="1375" y="271" as="sourcePoint"/><mxPoint x="1095.9999999999998" y="342" as="targetPoint"/><Array as="points"><mxPoint x="1375" y="271"/><mxPoint x="1073" y="271"/><mxPoint x="1073" y="342"/></Array></mxGeometry></mxCell><mxCell id="pgkJQkDIC2vx54YWdKHL-10" value="" style="endArrow=none;html=1;edgeStyle=orthogonalEdgeStyle;" edge="1" parent="pgkJQkDIC2vx54YWdKHL-1"><mxGeometry width="50" height="50" relative="1" as="geometry"><mxPoint x="1376" y="254" as="sourcePoint"/><mxPoint x="1094.0000000000002" y="456" as="targetPoint"/><Array as="points"><mxPoint x="1061" y="254"/><mxPoint x="1061" y="456"/></Array></mxGeometry></mxCell><mxCell id="pgkJQkDIC2vx54YWdKHL-11" value="" style="endArrow=none;html=1;edgeStyle=orthogonalEdgeStyle;" edge="1" parent="pgkJQkDIC2vx54YWdKHL-1"><mxGeometry width="50" height="50" relative="1" as="geometry"><mxPoint x="1374" y="239" as="sourcePoint"/><mxPoint x="1092" y="561" as="targetPoint"/><Array as="points"><mxPoint x="1046" y="239"/><mxPoint x="1046" y="561"/></Array></mxGeometry></mxCell></root></mxGraphModel></diagram></mxfile>